<?xml version="1.0" encoding="utf-8"?>
<!-- Generator: Adobe Illustrator 27.5.0, SVG Export Plug-In . SVG Version: 6.00 Build 0)  -->
<svg version="1.1" xmlns="http://www.w3.org/2000/svg" xmlns:xlink="http://www.w3.org/1999/xlink" x="0px" y="0px"
	 viewBox="0 0 500 500" style="enable-background:new 0 0 500 500;" xml:space="preserve">
<g id="Background_Simple">
	<g>
		<path style="fill:#92E3A9;" d="M446.78,113.529c-3.284-5.279-6.914-10.403-10.935-15.348
			c-32.358-39.794-74.664-56.627-122.999-67.909c-49.92-11.653-108.368-15.319-156.292,5.748
			c-11.281,4.959-21.976,11.601-30.488,20.599C94.007,90.51,83.015,147.303,47.29,192.187s-53.128,100.76-21.068,153.888
			c13.568,22.484,30.867,41.033,51.337,57.306c25.204,20.037,46.943,47.063,76.069,62.706c30.613,16.441,71.383,22.169,105.26,14.64
			c38.651-8.59,61.321-42.743,90.826-66.037c23.26-18.363,51.084-30.382,73.877-49.322c34.92-29.017,61.394-75.658,56.968-121.886
			C476.266,198.638,470.706,151.986,446.78,113.529z"/>
		<path style="opacity:0.7;fill:#FFFFFF;" d="M446.78,113.529c-3.284-5.279-6.914-10.403-10.935-15.348
			c-32.358-39.794-74.664-56.627-122.999-67.909c-49.92-11.653-108.368-15.319-156.292,5.748
			c-11.281,4.959-21.976,11.601-30.488,20.599C94.007,90.51,83.015,147.303,47.29,192.187s-53.128,100.76-21.068,153.888
			c13.568,22.484,30.867,41.033,51.337,57.306c25.204,20.037,46.943,47.063,76.069,62.706c30.613,16.441,71.383,22.169,105.26,14.64
			c38.651-8.59,61.321-42.743,90.826-66.037c23.26-18.363,51.084-30.382,73.877-49.322c34.92-29.017,61.394-75.658,56.968-121.886
			C476.266,198.638,470.706,151.986,446.78,113.529z"/>
	</g>
</g>
<g id="Floor">
	<g>
		
			<line style="fill:none;stroke:#263238;stroke-linecap:round;stroke-linejoin:round;stroke-miterlimit:10;" x1="36.795" y1="437.946" x2="468" y2="437.946"/>
		
			<line style="fill:none;stroke:#263238;stroke-linecap:round;stroke-linejoin:round;stroke-miterlimit:10;" x1="13.795" y1="437.946" x2="28.795" y2="437.946"/>
	</g>
</g>
<g id="Window">
	<g>
		<path style="opacity:0.2;" d="M427.47,49.703c-2.018,0-3.713,1.311-4.327,3.122H198.916c-0.614-1.811-2.309-3.122-4.327-3.122
			c-2.534,0-4.589,2.055-4.589,4.589c0,2.534,2.054,4.589,4.589,4.589c2.018,0,3.713-1.311,4.327-3.121h224.227
			c0.614,1.81,2.309,3.121,4.327,3.121c2.534,0,4.589-2.054,4.589-4.589C432.059,51.758,430.004,49.703,427.47,49.703z"/>
		<g style="opacity:0.2;">
			<path style="fill:none;stroke:#000000;stroke-linejoin:round;stroke-miterlimit:10;" d="M251.949,56.586
				c3.196,77.737,5.991,156.217,9.337,233.672l-0.331,15.18c0,0-14.371,0-21.935,0.756c-7.564,0.756-19.288,0.756-27.608,0.756
				c-8.32,0-12.858-3.026-12.858-3.026l0.541-13.69c1.679-77.415,3.49-155.903,4.671-233.648"/>
			
				<line style="fill:none;stroke:#000000;stroke-linejoin:round;stroke-miterlimit:10;" x1="216.122" y1="277.408" x2="216.082" y2="286.56"/>
			
				<line style="fill:none;stroke:#000000;stroke-linejoin:round;stroke-miterlimit:10;" x1="216.904" y1="99.069" x2="216.158" y2="269.28"/>
			
				<line style="fill:none;stroke:#000000;stroke-linejoin:round;stroke-miterlimit:10;" x1="217.098" y1="54.864" x2="216.926" y2="93.99"/>
			
				<line style="fill:none;stroke:#000000;stroke-linejoin:round;stroke-miterlimit:10;" x1="229.989" y1="144.278" x2="228.276" y2="257.598"/>
			
				<line style="fill:none;stroke:#000000;stroke-linejoin:round;stroke-miterlimit:10;" x1="231.325" y1="55.881" x2="230.096" y2="137.189"/>
			
				<line style="fill:none;stroke:#000000;stroke-linejoin:round;stroke-miterlimit:10;" x1="242.026" y1="175.791" x2="242.503" y2="280.971"/>
			
				<line style="fill:none;stroke:#000000;stroke-linejoin:round;stroke-miterlimit:10;" x1="241.688" y1="101.103" x2="241.987" y2="167.158"/>
			
				<line style="fill:none;stroke:#000000;stroke-linejoin:round;stroke-miterlimit:10;" x1="241.487" y1="56.897" x2="241.651" y2="92.974"/>
		</g>
		<g style="opacity:0.2;">
			<path style="fill:none;stroke:#000000;stroke-linejoin:round;stroke-miterlimit:10;" d="M367.955,56.586
				c-3.075,82.306-6.987,165.444-9.932,247.316c0,0,9.787,1.48,16.085,1.48c6.299,0,7.558,0,14.487,0c6.928,0,10.708,0,17.636,0
				c6.928,0,14.872-1.536,14.872-1.536c-1.448-81.816-2.426-164.955-4.965-247.261"/>
			
				<line style="fill:none;stroke:#000000;stroke-linejoin:round;stroke-miterlimit:10;" x1="403.782" y1="277.408" x2="403.822" y2="286.56"/>
			
				<line style="fill:none;stroke:#000000;stroke-linejoin:round;stroke-miterlimit:10;" x1="402.999" y1="99.069" x2="403.746" y2="269.28"/>
			
				<line style="fill:none;stroke:#000000;stroke-linejoin:round;stroke-miterlimit:10;" x1="402.805" y1="54.864" x2="402.977" y2="93.99"/>
			
				<line style="fill:none;stroke:#000000;stroke-linejoin:round;stroke-miterlimit:10;" x1="389.914" y1="144.278" x2="391.627" y2="257.598"/>
			
				<line style="fill:none;stroke:#000000;stroke-linejoin:round;stroke-miterlimit:10;" x1="388.578" y1="55.881" x2="389.807" y2="137.189"/>
			
				<line style="fill:none;stroke:#000000;stroke-linejoin:round;stroke-miterlimit:10;" x1="377.877" y1="175.791" x2="377.4" y2="280.971"/>
			
				<line style="fill:none;stroke:#000000;stroke-linejoin:round;stroke-miterlimit:10;" x1="378.216" y1="101.103" x2="377.916" y2="167.158"/>
			
				<line style="fill:none;stroke:#000000;stroke-linejoin:round;stroke-miterlimit:10;" x1="378.417" y1="56.897" x2="378.253" y2="92.974"/>
		</g>
		<g style="opacity:0.2;">
			<polyline style="fill:none;stroke:#000000;stroke-linejoin:round;stroke-miterlimit:10;" points="253.377,78.677 275.944,78.677 
				275.944,105.005 254.881,105.005 			"/>
			
				<rect x="279.879" y="78.742" style="fill:none;stroke:#000000;stroke-linejoin:round;stroke-miterlimit:10;" width="23.587" height="26.408"/>
		</g>
		<g style="opacity:0.2;">
			<polyline style="fill:none;stroke:#000000;stroke-linejoin:round;stroke-miterlimit:10;" points="366.832,78.677 344.265,78.677 
				344.265,105.005 365.327,105.005 			"/>
			
				<rect x="316.742" y="78.742" transform="matrix(-1 -1.224647e-16 1.224647e-16 -1 657.0723 183.8918)" style="fill:none;stroke:#000000;stroke-linejoin:round;stroke-miterlimit:10;" width="23.587" height="26.408"/>
		</g>
		<polyline style="opacity:0.2;fill:none;stroke:#000000;stroke-linejoin:round;stroke-miterlimit:10;" points="257.101,198.31 
			304.068,198.31 304.068,119.38 255.036,119.38 		"/>
		<polyline style="opacity:0.2;fill:none;stroke:#000000;stroke-linejoin:round;stroke-miterlimit:10;" points="364.454,118.712 
			316.455,118.712 316.455,198.31 360.841,198.31 		"/>
		<polyline style="opacity:0.2;fill:none;stroke:#000000;stroke-linejoin:round;stroke-miterlimit:10;" points="258.649,217.039 
			304.068,217.039 304.068,296.382 262.089,296.382 		"/>
		<polyline style="opacity:0.2;fill:none;stroke:#000000;stroke-linejoin:round;stroke-miterlimit:10;" points="361.357,216.37 
			316.455,216.37 316.455,297.118 357.393,297.118 		"/>
		
			<line style="opacity:0.2;fill:none;stroke:#000000;stroke-linejoin:round;stroke-miterlimit:10;" x1="261.882" y1="302.158" x2="358.022" y2="302.158"/>
		
			<line style="opacity:0.2;fill:none;stroke:#000000;stroke-linejoin:round;stroke-miterlimit:10;" x1="253.186" y1="69.541" x2="366.777" y2="69.541"/>
		
			<line style="opacity:0.2;fill:none;stroke:#000000;stroke-linejoin:round;stroke-miterlimit:10;" x1="310.253" y1="70.085" x2="310.253" y2="301.071"/>
		
			<line style="opacity:0.2;fill:none;stroke:#000000;stroke-linejoin:round;stroke-miterlimit:10;" x1="254.628" y1="113.276" x2="365.118" y2="113.276"/>
	</g>
</g>
<g id="Plant">
	<g>
		<path style="fill:none;stroke:#263238;stroke-linecap:round;stroke-miterlimit:10;" d="M446.975,233.404
			c0,0-11.726-6.514-12.595,8.252c-0.868,14.766-3.04,158.149-3.04,158.149"/>
		<path style="fill:none;stroke:#263238;stroke-linecap:round;stroke-miterlimit:10;" d="M428.291,242.956
			c0,0,9.564,68.687,5.221,155.545"/>
		<g>
			<path style="fill:#92E3A9;" d="M437.687,236.376c0,0-4.485,2.874-7.038-0.415c-2.552-3.289,1.727-9.314-2.045-11.891
				c-3.771-2.577-10.281,1.355-10.281,1.355s5.014,1.473,4.852,4.21s-2.577,3.771-2.898,2.575c-0.322-1.196-2.713-7.222-6.784-4.716
				c-4.071,2.506-4.693,6.393-4.693,6.393s9.476-1.01,10.05,2.555c0.574,3.565-3.887-0.622-7.796-0.852
				c-3.91-0.231-7.475,0.344-7.222,2.713c0.253,2.369-0.369,6.256-0.369,6.256s3.312-2.943,7.613-2.69
				c4.301,0.254,4.139,2.991,0.23,2.76c-3.91-0.231-7.268,3.495-7.268,3.495s3.564,6.095,8.094,9.109
				c4.53,3.014,6.163,1.933,6.693-0.39c0.529-2.323-0.689-8.28,2.048-8.118c2.737,0.161-4.532,10.326-1.037,10.924
				c3.496,0.599,6.302-0.413,7.222-2.713c0.92-2.3,0.92-2.3,0.92-2.3s-1.218-5.957-0.688-8.28c0.529-2.323,1.173,0.069,1.793,2.852
				c0.621,2.783,1.01,9.476,2.206,9.154c1.196-0.322,5.015-5.197,5.912-7.106c0.897-1.909-5.035-7.752-4.966-8.924
				c0.069-1.173,4.646,1.059,5.358,2.278c0.713,1.219,1.402,2.829,1.402,2.829s2.852-1.794,2.784-7.29
				C441.712,234.652,437.687,236.376,437.687,236.376z"/>
			<path style="opacity:0.3;fill:#263238;" d="M437.687,236.376c0,0-4.485,2.874-7.038-0.415c-2.552-3.289,1.727-9.314-2.045-11.891
				c-3.771-2.577-10.281,1.355-10.281,1.355s5.014,1.473,4.852,4.21s-2.577,3.771-2.898,2.575c-0.322-1.196-2.713-7.222-6.784-4.716
				c-4.071,2.506-4.693,6.393-4.693,6.393s9.476-1.01,10.05,2.555c0.574,3.565-3.887-0.622-7.796-0.852
				c-3.91-0.231-7.475,0.344-7.222,2.713c0.253,2.369-0.369,6.256-0.369,6.256s3.312-2.943,7.613-2.69
				c4.301,0.254,4.139,2.991,0.23,2.76c-3.91-0.231-7.268,3.495-7.268,3.495s3.564,6.095,8.094,9.109
				c4.53,3.014,6.163,1.933,6.693-0.39c0.529-2.323-0.689-8.28,2.048-8.118c2.737,0.161-4.532,10.326-1.037,10.924
				c3.496,0.599,6.302-0.413,7.222-2.713c0.92-2.3,0.92-2.3,0.92-2.3s-1.218-5.957-0.688-8.28c0.529-2.323,1.173,0.069,1.793,2.852
				c0.621,2.783,1.01,9.476,2.206,9.154c1.196-0.322,5.015-5.197,5.912-7.106c0.897-1.909-5.035-7.752-4.966-8.924
				c0.069-1.173,4.646,1.059,5.358,2.278c0.713,1.219,1.402,2.829,1.402,2.829s2.852-1.794,2.784-7.29
				C441.712,234.652,437.687,236.376,437.687,236.376z"/>
			<path style="fill:none;stroke:#263238;stroke-linecap:round;stroke-miterlimit:10;" d="M414.948,249.264
				c2.925-3.616,7.236-8.509,10.848-10.844"/>
			<path style="fill:none;stroke:#263238;stroke-linecap:round;stroke-miterlimit:10;" d="M411.557,253.666
				c0,0,0.751-1.044,1.968-2.609"/>
			<path style="fill:none;stroke:#263238;stroke-linecap:round;stroke-miterlimit:10;" d="M427.705,239.318
				c0,0,4.346,6.142,5.15,12.466"/>
			<path style="fill:none;stroke:#263238;stroke-linecap:round;stroke-miterlimit:10;" d="M422.783,242.951
				c0,0,1.219-0.713,0.758,7.107"/>
			<path style="fill:none;stroke:#263238;stroke-linecap:round;stroke-miterlimit:10;" d="M425.958,235.684
				c0,0,2.484-2.208,1.174-6.601"/>
			
				<line style="fill:none;stroke:#263238;stroke-linecap:round;stroke-miterlimit:10;" x1="422.599" y1="239.409" x2="420.829" y2="236.166"/>
			<path style="fill:none;stroke:#263238;stroke-linecap:round;stroke-miterlimit:10;" d="M418.873,242.72
				c0,0-5.634-4.256-9.153-4.463"/>
		</g>
		<g>
			<path style="fill:#92E3A9;" d="M453.674,224.788c0,0-0.18,6.45-5.213,6.763c-5.033,0.313-8.149-8.077-13.299-6.058
				c-5.15,2.02-5.651,11.217-5.651,11.217s4.892-4.016,7.522-1.989c2.63,2.027,2.02,5.15,0.603,4.657
				c-1.417-0.493-9.08-2.207-9.346,3.578c-0.266,5.784,3.202,9.056,3.202,9.056s5.447-10.176,9.408-8.321
				c3.961,1.855-3.272,3.468-6.168,7.225c-2.896,3.757-4.751,7.718-2.207,9.08c2.544,1.362,6.012,4.633,6.012,4.633
				s-0.689-5.323,2.496-9.456c3.185-4.133,5.816-2.106,2.92,1.651c-2.896,3.757-1.455,9.659-1.455,9.659s8.532,0.587,14.637-1.895
				c6.105-2.482,6.136-4.853,4.171-6.967c-1.965-2.113-8.759-4.954-6.732-7.584c2.027-2.63,7.249,11.576,10.231,8.484
				c2.982-3.092,3.882-6.591,2.207-9.08c-1.675-2.489-1.675-2.489-1.675-2.489s-6.794-2.841-8.759-4.954
				c-1.965-2.113,0.869-1.127,4.078,0.149c3.209,1.276,10.176,5.447,10.669,4.03c0.493-1.417-1.785-8.563-3.085-10.762
				c-1.299-2.199-11.193-0.242-12.32-1.111c-1.127-0.869,4.227-3.93,5.933-3.812c1.706,0.117,3.789,0.524,3.789,0.524
				s0.148-4.078-5.401-7.757C454.691,219.583,453.674,224.788,453.674,224.788z"/>
			<path style="opacity:0.2;fill:#263238;" d="M453.674,224.788c0,0-0.18,6.45-5.213,6.763c-5.033,0.313-8.149-8.077-13.299-6.058
				c-5.15,2.02-5.651,11.217-5.651,11.217s4.892-4.016,7.522-1.989c2.63,2.027,2.02,5.15,0.603,4.657
				c-1.417-0.493-9.08-2.207-9.346,3.578c-0.266,5.784,3.202,9.056,3.202,9.056s5.447-10.176,9.408-8.321
				c3.961,1.855-3.272,3.468-6.168,7.225c-2.896,3.757-4.751,7.718-2.207,9.08c2.544,1.362,6.012,4.633,6.012,4.633
				s-0.689-5.323,2.496-9.456c3.185-4.133,5.816-2.106,2.92,1.651c-2.896,3.757-1.455,9.659-1.455,9.659s8.532,0.587,14.637-1.895
				c6.105-2.482,6.136-4.853,4.171-6.967c-1.965-2.113-8.759-4.954-6.732-7.584c2.027-2.63,7.249,11.576,10.231,8.484
				c2.982-3.092,3.882-6.591,2.207-9.08c-1.675-2.489-1.675-2.489-1.675-2.489s-6.794-2.841-8.759-4.954
				c-1.965-2.113,0.869-1.127,4.078,0.149c3.209,1.276,10.176,5.447,10.669,4.03c0.493-1.417-1.785-8.563-3.085-10.762
				c-1.299-2.199-11.193-0.242-12.32-1.111c-1.127-0.869,4.227-3.93,5.933-3.812c1.706,0.117,3.789,0.524,3.789,0.524
				s0.148-4.078-5.401-7.757C454.691,219.583,453.674,224.788,453.674,224.788z"/>
			<path style="fill:none;stroke:#263238;stroke-linecap:round;stroke-miterlimit:10;" d="M451.079,256.339
				c-1.627-5.393-3.587-13.044-3.463-18.253"/>
			<path style="fill:none;stroke:#263238;stroke-linecap:round;stroke-miterlimit:10;" d="M453.175,262.735
				c0,0-0.534-1.464-1.27-3.749"/>
			<path style="fill:none;stroke:#263238;stroke-linecap:round;stroke-miterlimit:10;" d="M449.816,236.787
				c0,0,9.111-0.165,15.991,3.341"/>
			<path style="fill:none;stroke:#263238;stroke-linecap:round;stroke-miterlimit:10;" d="M450.098,244.192
				c0,0,0.117-1.706,7.632,4.086"/>
			<path style="fill:none;stroke:#263238;stroke-linecap:round;stroke-miterlimit:10;" d="M444.986,236.06
				c0,0-0.517-3.992-5.808-5.675"/>
			
				<line style="fill:none;stroke:#263238;stroke-linecap:round;stroke-miterlimit:10;" x1="446.427" y1="241.961" x2="441.973" y2="241.523"/>
			<path style="fill:none;stroke:#263238;stroke-linecap:round;stroke-miterlimit:10;" d="M447.202,247.949
				c0,0-8.101,2.74-10.707,6.122"/>
		</g>
		<path style="fill:none;stroke:#263238;stroke-linecap:round;stroke-miterlimit:10;" d="M399.637,267.713
			c0,0,28.045,22.781,25.189,129.92"/>
		<g>
			<path style="fill:#92E3A9;" d="M431.23,263.238c0,0-0.816,7.426-6.653,7.312c-5.837-0.113-8.641-10.09-14.774-8.245
				c-6.134,1.844-7.579,12.41-7.579,12.41s6.024-4.172,8.868-1.585c2.844,2.587,1.844,6.134,0.256,5.431
				c-1.588-0.703-10.269-3.404-11.122,3.246c-0.853,6.65,2.84,10.752,2.84,10.752s7.246-11.228,11.641-8.714
				c4.395,2.514-4.102,3.693-7.799,7.755c-3.696,4.062-6.21,8.457-3.404,10.269c2.807,1.812,6.5,5.914,6.5,5.914
				s-0.293-6.207,3.773-10.675c4.066-4.469,6.91-1.881,3.213,2.181c-3.696,4.062-2.591,11.008-2.591,11.008s9.79,1.482,17.069-0.805
				c7.279-2.287,7.539-5.021,5.471-7.645s-9.64-6.543-7.052-9.387c2.587-2.844,7.272,14.042,11.005,10.756
				c3.733-3.286,5.102-7.239,3.404-10.269c-1.698-3.03-1.698-3.03-1.698-3.03s-7.572-3.919-9.64-6.544
				c-2.068-2.624,1.109-1.219,4.692,0.556c3.583,1.775,11.228,7.246,11.931,5.658c0.703-1.588-1.252-10.049-2.543-12.71
				c-1.292-2.661-12.893-1.336-14.112-2.445c-1.219-1.109,5.248-4.136,7.206-3.839c1.958,0.297,4.322,0.963,4.322,0.963
				s0.556-4.692-5.501-9.46C432.895,257.328,431.23,263.238,431.23,263.238z"/>
			<path style="opacity:0.3;fill:#263238;" d="M431.23,263.238c0,0-0.816,7.426-6.653,7.312c-5.837-0.113-8.641-10.09-14.774-8.245
				c-6.134,1.844-7.579,12.41-7.579,12.41s6.024-4.172,8.868-1.585c2.844,2.587,1.844,6.134,0.256,5.431
				c-1.588-0.703-10.269-3.404-11.122,3.246c-0.853,6.65,2.84,10.752,2.84,10.752s7.246-11.228,11.641-8.714
				c4.395,2.514-4.102,3.693-7.799,7.755c-3.696,4.062-6.21,8.457-3.404,10.269c2.807,1.812,6.5,5.914,6.5,5.914
				s-0.293-6.207,3.773-10.675c4.066-4.469,6.91-1.881,3.213,2.181c-3.696,4.062-2.591,11.008-2.591,11.008s9.79,1.482,17.069-0.805
				c7.279-2.287,7.539-5.021,5.471-7.645s-9.64-6.543-7.052-9.387c2.587-2.844,7.272,14.042,11.005,10.756
				c3.733-3.286,5.102-7.239,3.404-10.269c-1.698-3.03-1.698-3.03-1.698-3.03s-7.572-3.919-9.64-6.544
				c-2.068-2.624,1.109-1.219,4.692,0.556c3.583,1.775,11.228,7.246,11.931,5.658c0.703-1.588-1.252-10.049-2.543-12.71
				c-1.292-2.661-12.893-1.336-14.112-2.445c-1.219-1.109,5.248-4.136,7.206-3.839c1.958,0.297,4.322,0.963,4.322,0.963
				s0.556-4.692-5.501-9.46C432.895,257.328,431.23,263.238,431.23,263.238z"/>
			<path style="fill:none;stroke:#263238;stroke-linecap:round;stroke-miterlimit:10;" d="M425.257,299.401
				c-1.368-6.377-2.908-15.39-2.273-21.389"/>
			<path style="fill:none;stroke:#263238;stroke-linecap:round;stroke-miterlimit:10;" d="M427.072,306.979
				c0,0-0.477-1.74-1.112-4.446"/>
			<path style="fill:none;stroke:#263238;stroke-linecap:round;stroke-miterlimit:10;" d="M425.645,276.72
				c0,0,10.529,0.67,18.137,5.365"/>
			<path style="fill:none;stroke:#263238;stroke-linecap:round;stroke-miterlimit:10;" d="M425.272,285.291
				c0,0,0.297-1.958,8.421,5.435"/>
			<path style="fill:none;stroke:#263238;stroke-linecap:round;stroke-miterlimit:10;" d="M420.141,275.425
				c0,0-0.22-4.655-6.167-7.096"/>
			
				<line style="fill:none;stroke:#263238;stroke-linecap:round;stroke-miterlimit:10;" x1="421.246" y1="282.371" x2="416.148" y2="281.445"/>
			<path style="fill:none;stroke:#263238;stroke-linecap:round;stroke-miterlimit:10;" d="M421.576,289.354
				c0,0-9.607,2.397-12.933,6.053"/>
		</g>
		<g>
			<path style="fill:#92E3A9;" d="M431.23,335.581c0,0-0.816,7.426-6.653,7.312c-5.837-0.113-8.641-10.09-14.774-8.245
				c-6.134,1.844-7.579,12.41-7.579,12.41s6.024-4.172,8.868-1.585c2.844,2.587,1.844,6.134,0.256,5.431
				c-1.588-0.703-10.269-3.404-11.122,3.246c-0.853,6.65,2.84,10.752,2.84,10.752s7.246-11.228,11.641-8.714
				c4.395,2.514-4.102,3.693-7.799,7.755c-3.696,4.062-6.21,8.458-3.404,10.269c2.807,1.812,6.5,5.914,6.5,5.914
				s-0.293-6.207,3.773-10.675c4.066-4.469,6.91-1.881,3.213,2.181c-3.696,4.062-2.591,11.008-2.591,11.008s9.79,1.482,17.069-0.805
				c7.279-2.287,7.539-5.021,5.471-7.645s-9.64-6.543-7.052-9.387c2.587-2.844,7.272,14.042,11.005,10.756
				c3.733-3.286,5.102-7.239,3.404-10.269c-1.698-3.03-1.698-3.03-1.698-3.03s-7.572-3.919-9.64-6.544
				c-2.068-2.624,1.109-1.219,4.692,0.556c3.583,1.775,11.228,7.246,11.931,5.658c0.703-1.588-1.252-10.049-2.543-12.71
				c-1.292-2.66-12.893-1.336-14.112-2.445c-1.219-1.109,5.248-4.135,7.206-3.839c1.958,0.296,4.322,0.963,4.322,0.963
				s0.556-4.692-5.501-9.46C432.895,329.67,431.23,335.581,431.23,335.581z"/>
			<path style="opacity:0.3;fill:#263238;" d="M431.23,335.581c0,0-0.816,7.426-6.653,7.312c-5.837-0.113-8.641-10.09-14.774-8.245
				c-6.134,1.844-7.579,12.41-7.579,12.41s6.024-4.172,8.868-1.585c2.844,2.587,1.844,6.134,0.256,5.431
				c-1.588-0.703-10.269-3.404-11.122,3.246c-0.853,6.65,2.84,10.752,2.84,10.752s7.246-11.228,11.641-8.714
				c4.395,2.514-4.102,3.693-7.799,7.755c-3.696,4.062-6.21,8.458-3.404,10.269c2.807,1.812,6.5,5.914,6.5,5.914
				s-0.293-6.207,3.773-10.675c4.066-4.469,6.91-1.881,3.213,2.181c-3.696,4.062-2.591,11.008-2.591,11.008s9.79,1.482,17.069-0.805
				c7.279-2.287,7.539-5.021,5.471-7.645s-9.64-6.543-7.052-9.387c2.587-2.844,7.272,14.042,11.005,10.756
				c3.733-3.286,5.102-7.239,3.404-10.269c-1.698-3.03-1.698-3.03-1.698-3.03s-7.572-3.919-9.64-6.544
				c-2.068-2.624,1.109-1.219,4.692,0.556c3.583,1.775,11.228,7.246,11.931,5.658c0.703-1.588-1.252-10.049-2.543-12.71
				c-1.292-2.66-12.893-1.336-14.112-2.445c-1.219-1.109,5.248-4.135,7.206-3.839c1.958,0.296,4.322,0.963,4.322,0.963
				s0.556-4.692-5.501-9.46C432.895,329.67,431.23,335.581,431.23,335.581z"/>
			<path style="fill:none;stroke:#263238;stroke-linecap:round;stroke-miterlimit:10;" d="M425.257,371.744
				c-1.368-6.377-2.908-15.39-2.273-21.389"/>
			<path style="fill:none;stroke:#263238;stroke-linecap:round;stroke-miterlimit:10;" d="M427.072,379.321
				c0,0-0.477-1.739-1.112-4.446"/>
			<path style="fill:none;stroke:#263238;stroke-linecap:round;stroke-miterlimit:10;" d="M425.645,349.063
				c0,0,10.529,0.67,18.137,5.365"/>
			<path style="fill:none;stroke:#263238;stroke-linecap:round;stroke-miterlimit:10;" d="M425.272,357.634
				c0,0,0.297-1.958,8.421,5.435"/>
			<path style="fill:none;stroke:#263238;stroke-linecap:round;stroke-miterlimit:10;" d="M420.141,347.767
				c0,0-0.22-4.655-6.167-7.096"/>
			
				<line style="fill:none;stroke:#263238;stroke-linecap:round;stroke-miterlimit:10;" x1="421.246" y1="354.714" x2="416.148" y2="353.788"/>
			<path style="fill:none;stroke:#263238;stroke-linecap:round;stroke-miterlimit:10;" d="M421.576,361.696
				c0,0-9.607,2.397-12.933,6.053"/>
		</g>
		<path style="fill:none;stroke:#263238;stroke-linecap:round;stroke-miterlimit:10;" d="M409.626,319.393
			c0,0,16.503,59.999,18.24,78.674l-3.474-109.943"/>
		<path style="fill:none;stroke:#263238;stroke-linecap:round;stroke-miterlimit:10;" d="M449.581,310.273
			c-21.715-3.909-21.715,87.794-21.715,87.794"/>
		<path style="fill:none;stroke:#263238;stroke-linecap:round;stroke-miterlimit:10;" d="M430.472,397.633
			c0,0-12.594-139.04,23.886-139.04"/>
		<g>
			<path style="fill:#92E3A9;" d="M441.307,307.639c-2.966-3.337-9.269-3.337-12.977,5.191c-3.708,8.528-0.371,7.045-0.371,7.045
				s7.045-2.225,11.494-3.708c4.449-1.483,10.382-5.191,10.752-2.966c0.371,2.225-2.966,4.449-7.044,5.191
				c-4.078,0.742-14.831,3.708-13.718,5.932c1.112,2.225,3.708,8.898,3.708,8.898s5.191-4.449,10.011-7.415
				c4.82-2.966,7.786-1.854,5.191,1.483c-2.595,3.337-10.011,7.044-8.528,11.494c1.483,4.449,10.381,10.011,10.381,10.011
				s1.112-9.269,3.708-12.235c2.595-2.966,2.595,0.371,1.854,5.561c-0.742,5.191-0.742,6.674-0.742,6.674l10.382,3.708
				c0,0,3.708-5.561,5.561-7.415c1.854-1.854,1.854-1.854,1.854-1.854s-8.157-7.045-8.528-11.494c-0.371-4.449,5.562,0,7.415,0.742
				c1.854,0.742,4.82,5.932,4.82,5.932s1.854-8.528,2.225-11.494c0.371-2.966,0.371-2.966,0.371-2.966s-7.786-2.966-10.752-2.966
				s-4.449,2.225-4.449-0.741c0-2.966,2.966-4.82,6.303-4.449c3.337,0.371,8.898,2.225,8.898,2.225s2.224-1.854,1.483-7.415
				c-0.741-5.561-2.595-5.561-7.044-4.078c-4.449,1.483-7.415,4.82-10.752,4.82c-3.337,0-1.483-4.078,0.742-5.191
				c2.225-1.112,7.786-3.337,8.898-3.708c1.112-0.371-5.932-5.561-9.64-6.303c-3.708-0.742-8.508,1.871-8.157,5.561
				C455.396,309.493,444.273,310.976,441.307,307.639z"/>
			<path style="fill:none;stroke:#263238;stroke-linecap:round;stroke-miterlimit:10;" d="M465.174,345.814
				c0.11,1.117,0.189,2.235,0.232,3.351"/>
			<path style="fill:none;stroke:#263238;stroke-linecap:round;stroke-miterlimit:10;" d="M457.726,319.198
				c2.604,6.018,5.615,14.315,6.979,22.975"/>
			<path style="fill:none;stroke:#263238;stroke-linecap:round;stroke-miterlimit:10;" d="M456.39,316.221
				c-1.837-3.95-3.219-6.358-3.219-6.358s3.337-1.483,4.82-4.449c1.483-2.966,3.708-4.449,3.708-4.449"/>
			<path style="fill:none;stroke:#263238;stroke-linecap:round;stroke-miterlimit:10;" d="M440.194,322.469
				c0,0,13.348-5.561,13.348-4.449"/>
			<path style="fill:none;stroke:#263238;stroke-linecap:round;stroke-miterlimit:10;" d="M460.957,315.425
				c0,0,5.932-2.966,11.123-2.966"/>
			<path style="fill:none;stroke:#263238;stroke-linecap:round;stroke-miterlimit:10;" d="M458.733,324.323
				c0,0-3.337,2.595-7.044,7.045c-3.708,4.449-5.191,8.527-5.191,8.527"/>
			<path style="fill:none;stroke:#263238;stroke-linecap:round;stroke-miterlimit:10;" d="M462.811,325.806
				c0,0,7.786-2.225,11.865,1.483"/>
		</g>
		<g>
			<path style="fill:#92E3A9;" d="M476.915,275.708c-4.037-2.388-8.501-2.44-10.689-4.96c-2.188-2.52,2.108-3.794,4.406-2.843
				c2.298,0.951,7.624,3.692,8.633,4.289c1.009,0.597,0.311-8.126-1.56-11.411c-1.871-3.286-6.99-5.199-9.547-2.514
				c-5.393,5.664-13.805-1.763-13.23-6.19c0.575-4.427-3.557-9.187-12.427-6.396c-8.87,2.791-5.563,4.338-5.563,4.338
				s6.298,3.861,10.335,6.249c4.037,2.387,10.725,4.437,9.289,6.175c-1.437,1.738-5.304,0.677-8.538-1.917
				c-3.234-2.594-12.522-8.769-13.473-6.47c-0.951,2.298-4.289,8.633-4.289,8.633s6.763,1.003,12.162,2.698
				c5.4,1.695,6.504,4.664,2.283,4.892c-4.221,0.228-11.882-2.941-14.27,1.095c-2.388,4.037-0.754,14.402-0.754,14.402
				s7.729-5.237,11.67-5.221c3.941,0.015,1.421,2.203-2.984,5.046c-4.406,2.843-5.526,3.815-5.526,3.815l4.006,10.27
				c0,0,6.63-0.846,9.245-0.662c2.615,0.185,2.615,0.185,2.615,0.185s-0.028-10.778,3.089-13.974s3.646,4.2,4.301,6.086
				c0.655,1.886-1.32,7.529-1.32,7.529s7.655-4.191,10.138-5.855c2.483-1.664,2.483-1.664,2.483-1.664s-2.865-7.824-4.809-10.064
				c-1.944-2.24-4.597-1.901-2.357-3.846c2.24-1.944,5.584-0.92,7.492,1.843c1.908,2.763,4.154,8.178,4.154,8.178
				s2.858,0.465,6.572-3.741C482.167,279.496,480.951,278.096,476.915,275.708z M441.826,287.576
				c-2.966-1.483,4.078-4.449,4.078-4.449C448.5,282.756,444.792,289.059,441.826,287.576z M446.821,273.734
				c-1.264-0.632,2.529-1.897,2.529-1.897C454.829,272.891,448.086,274.366,446.821,273.734z"/>
			<path style="fill:none;stroke:#263238;stroke-linecap:round;stroke-miterlimit:10;" d="M441.747,295.129
				c-0.771,0.815-1.563,1.608-2.378,2.372"/>
			<path style="fill:none;stroke:#263238;stroke-linecap:round;stroke-miterlimit:10;" d="M456.964,272.055
				c-2.837,5.911-7.129,13.625-12.774,20.332"/>
			<path style="fill:none;stroke:#263238;stroke-linecap:round;stroke-miterlimit:10;" d="M458.336,269.096
				c1.779-3.976,2.691-6.599,2.691-6.599s3.308,1.548,6.52,0.723c3.212-0.825,5.79-0.117,5.79-0.117"/>
			<path style="fill:none;stroke:#263238;stroke-linecap:round;stroke-miterlimit:10;" d="M443,260.962c0,0,12.95,6.433,12.11,7.163
				"/>
			<path style="fill:none;stroke:#263238;stroke-linecap:round;stroke-miterlimit:10;" d="M461.931,272.022
				c0,0,6.129,2.535,9.531,6.455"/>
			<path style="fill:none;stroke:#263238;stroke-linecap:round;stroke-miterlimit:10;" d="M453.753,276.176
				c0,0-4.147-0.818-9.938-0.701c-5.79,0.117-9.842,1.671-9.842,1.671"/>
			<path style="fill:none;stroke:#263238;stroke-linecap:round;stroke-miterlimit:10;" d="M455.307,280.228
				c0,0,6.784,4.421,6.658,9.932"/>
		</g>
		<g>
			<path style="fill:#92E3A9;" d="M419.302,327.083c-3.248-1.921-6.841-1.964-8.602-3.991c-1.76-2.028,1.696-3.053,3.546-2.288
				c1.849,0.765,6.135,2.971,6.948,3.451c0.812,0.48,0.25-6.539-1.256-9.183c-1.505-2.644-5.625-4.184-7.683-2.023
				c-4.34,4.558-11.11-1.419-10.647-4.982c0.463-3.563-2.862-7.393-10-5.147c-7.138,2.246-4.476,3.491-4.476,3.491
				s5.068,3.107,8.317,5.029c3.249,1.921,8.631,3.57,7.475,4.969c-1.156,1.399-4.269,0.545-6.871-1.543
				c-2.602-2.087-10.077-7.056-10.842-5.207c-0.765,1.85-3.451,6.948-3.451,6.948s5.442,0.807,9.788,2.171
				c4.345,1.364,5.234,3.754,1.837,3.937c-3.397,0.183-9.562-2.367-11.484,0.882c-1.921,3.249-0.606,11.59-0.606,11.59
				s6.22-4.214,9.391-4.202c3.172,0.012,1.144,1.773-2.402,4.061c-3.546,2.288-4.447,3.07-4.447,3.07l3.224,8.265
				c0,0,5.336-0.681,7.44-0.532c2.104,0.148,2.104,0.148,2.104,0.148s-0.022-8.673,2.486-11.246c2.508-2.573,2.934,3.38,3.461,4.897
				s-1.062,6.059-1.062,6.059s6.16-3.372,8.158-4.712c1.998-1.339,1.998-1.339,1.998-1.339s-2.305-6.297-3.87-8.099
				c-1.565-1.803-3.699-1.53-1.897-3.095c1.802-1.565,4.494-0.74,6.029,1.483c1.535,2.224,3.343,6.581,3.343,6.581
				s2.3,0.374,5.289-3.011C423.528,330.131,422.55,329.004,419.302,327.083z M391.064,336.633c-2.387-1.193,3.282-3.581,3.282-3.581
				C396.435,332.754,393.451,337.827,391.064,336.633z M395.084,325.494c-1.017-0.509,2.035-1.526,2.035-1.526
				C401.528,324.816,396.102,326.003,395.084,325.494z"/>
			<path style="fill:none;stroke:#263238;stroke-linecap:round;stroke-miterlimit:10;" d="M391.001,342.711
				c-0.62,0.656-1.258,1.294-1.914,1.909"/>
			<path style="fill:none;stroke:#263238;stroke-linecap:round;stroke-miterlimit:10;" d="M403.246,324.143
				c-2.283,4.757-5.737,10.965-10.28,16.362"/>
			<path style="fill:none;stroke:#263238;stroke-linecap:round;stroke-miterlimit:10;" d="M404.35,321.761
				c1.431-3.2,2.165-5.31,2.165-5.31s2.662,1.245,5.247,0.582c2.585-0.664,4.66-0.094,4.66-0.094"/>
			<path style="fill:none;stroke:#263238;stroke-linecap:round;stroke-miterlimit:10;" d="M392.009,315.216
				c0,0,10.421,5.177,9.746,5.764"/>
			<path style="fill:none;stroke:#263238;stroke-linecap:round;stroke-miterlimit:10;" d="M407.244,324.117
				c0,0,4.932,2.04,7.671,5.195"/>
			<path style="fill:none;stroke:#263238;stroke-linecap:round;stroke-miterlimit:10;" d="M400.662,327.459
				c0,0-3.338-0.659-7.997-0.564c-4.66,0.094-7.921,1.344-7.921,1.344"/>
			<path style="fill:none;stroke:#263238;stroke-linecap:round;stroke-miterlimit:10;" d="M401.913,330.72
				c0,0,5.46,3.558,5.358,7.992"/>
		</g>
		<g>
			<path style="fill:#92E3A9;" d="M450.729,367.108c-3.249-1.921-6.841-1.963-8.602-3.991c-1.76-2.028,1.696-3.053,3.546-2.288
				c1.85,0.765,6.136,2.971,6.948,3.452c0.812,0.48,0.25-6.539-1.255-9.184c-1.505-2.644-5.625-4.184-7.683-2.023
				c-4.34,4.558-11.11-1.419-10.647-4.982c0.463-3.563-2.862-7.393-10-5.147c-7.138,2.246-4.477,3.491-4.477,3.491
				s5.068,3.107,8.317,5.029c3.249,1.921,8.631,3.57,7.475,4.969c-1.156,1.399-4.269,0.545-6.871-1.543
				c-2.602-2.087-10.077-7.056-10.842-5.207c-0.765,1.85-3.452,6.948-3.452,6.948s5.442,0.807,9.788,2.171
				c4.345,1.364,5.234,3.754,1.837,3.937c-3.397,0.183-9.562-2.367-11.484,0.882c-1.921,3.248-0.607,11.59-0.607,11.59
				s6.22-4.214,9.391-4.202s1.144,1.773-2.402,4.061c-3.546,2.288-4.447,3.07-4.447,3.07l3.224,8.265c0,0,5.336-0.681,7.44-0.532
				c2.105,0.149,2.105,0.149,2.105,0.149s-0.022-8.673,2.486-11.246c2.508-2.573,2.934,3.38,3.461,4.897
				c0.527,1.518-1.062,6.059-1.062,6.059s6.16-3.372,8.158-4.712c1.998-1.34,1.998-1.34,1.998-1.34s-2.305-6.296-3.87-8.099
				c-1.565-1.803-3.699-1.53-1.897-3.095c1.802-1.565,4.494-0.74,6.029,1.483c1.535,2.223,3.343,6.581,3.343,6.581
				s2.3,0.374,5.289-3.011C454.956,370.156,453.978,369.03,450.729,367.108z M422.492,376.659c-2.387-1.194,3.282-3.58,3.282-3.58
				C427.863,372.78,424.879,377.852,422.492,376.659z M426.511,365.52c-1.017-0.509,2.035-1.526,2.035-1.526
				C432.956,364.841,427.529,366.028,426.511,365.52z"/>
			<path style="fill:none;stroke:#263238;stroke-linecap:round;stroke-miterlimit:10;" d="M422.428,382.737
				c-0.62,0.656-1.258,1.294-1.913,1.909"/>
			<path style="fill:none;stroke:#263238;stroke-linecap:round;stroke-miterlimit:10;" d="M434.674,364.169
				c-2.283,4.757-5.737,10.965-10.28,16.362"/>
			<path style="fill:none;stroke:#263238;stroke-linecap:round;stroke-miterlimit:10;" d="M435.778,361.787
				c1.431-3.2,2.165-5.31,2.165-5.31s2.662,1.245,5.246,0.582c2.585-0.664,4.66-0.094,4.66-0.094"/>
			<path style="fill:none;stroke:#263238;stroke-linecap:round;stroke-miterlimit:10;" d="M423.436,355.241
				c0,0,10.422,5.177,9.746,5.764"/>
			<path style="fill:none;stroke:#263238;stroke-linecap:round;stroke-miterlimit:10;" d="M438.671,364.142
				c0,0,4.932,2.04,7.671,5.194"/>
			<path style="fill:none;stroke:#263238;stroke-linecap:round;stroke-miterlimit:10;" d="M432.09,367.485
				c0,0-3.337-0.659-7.997-0.564c-4.66,0.094-7.921,1.345-7.921,1.345"/>
			<path style="fill:none;stroke:#263238;stroke-linecap:round;stroke-miterlimit:10;" d="M433.34,370.746
				c0,0,5.46,3.558,5.358,7.992"/>
		</g>
		<g>
			<path style="fill:#92E3A9;" d="M406.056,265.858c0,0-4.078,2.966-6.674,0c-2.595-2.966,1.112-8.898-2.595-11.123
				c-3.708-2.225-9.64,1.854-9.64,1.854s4.82,1.112,4.82,3.708s-2.224,3.708-2.595,2.595c-0.371-1.112-2.966-6.674-6.674-4.078
				c-3.708,2.595-4.078,6.303-4.078,6.303s8.898-1.483,9.64,1.854c0.742,3.337-3.708-0.371-7.415-0.371
				c-3.708,0-7.044,0.741-6.674,2.966c0.371,2.225,0,5.932,0,5.932s2.966-2.966,7.044-2.966c4.078,0,4.078,2.595,0.371,2.595
				c-3.708,0-6.674,3.708-6.674,3.708s3.708,5.562,8.157,8.157c4.449,2.595,5.932,1.483,6.303-0.742
				c0.371-2.225-1.112-7.786,1.483-7.786s-3.708,10.011-0.371,10.381c3.337,0.371,5.932-0.741,6.674-2.966
				c0.742-2.225,0.742-2.225,0.742-2.225s-1.483-5.562-1.112-7.786c0.371-2.225,1.112,0,1.854,2.595
				c0.742,2.595,1.483,8.898,2.595,8.527c1.112-0.371,4.449-5.191,5.191-7.044c0.741-1.854-5.191-7.045-5.191-8.157
				c0-1.112,4.449,0.741,5.191,1.854c0.741,1.112,1.483,2.595,1.483,2.595s2.595-1.854,2.225-7.044
				C409.763,264.004,406.056,265.858,406.056,265.858z"/>
			<path style="fill:none;stroke:#263238;stroke-linecap:round;stroke-miterlimit:10;" d="M385.286,279.306
				c2.562-3.58,6.363-8.444,9.647-10.852"/>
			<path style="fill:none;stroke:#263238;stroke-linecap:round;stroke-miterlimit:10;" d="M382.327,283.655
				c0,0,0.651-1.029,1.715-2.575"/>
			<path style="fill:none;stroke:#263238;stroke-linecap:round;stroke-miterlimit:10;" d="M396.787,269.195
				c0,0,4.449,5.561,5.561,11.494"/>
			<path style="fill:none;stroke:#263238;stroke-linecap:round;stroke-miterlimit:10;" d="M392.337,272.902
				c0,0,1.112-0.741,1.112,6.674"/>
			<path style="fill:none;stroke:#263238;stroke-linecap:round;stroke-miterlimit:10;" d="M394.933,265.858
				c0,0,2.224-2.225,0.741-6.303"/>
			
				<line style="fill:none;stroke:#263238;stroke-linecap:round;stroke-miterlimit:10;" x1="391.966" y1="269.565" x2="390.113" y2="266.599"/>
			<path style="fill:none;stroke:#263238;stroke-linecap:round;stroke-miterlimit:10;" d="M388.63,272.902
				c0,0-5.562-3.708-8.898-3.708"/>
		</g>
		
			<rect x="414.838" y="396.688" style="fill:#263238;stroke:#263238;stroke-width:2;stroke-linecap:round;stroke-miterlimit:10;" width="28.663" height="41.258"/>
	</g>
</g>
<g id="Character">
	<g>
		
			<ellipse style="fill:#263238;stroke:#263238;stroke-width:2;stroke-linecap:round;stroke-miterlimit:10;" cx="346.295" cy="453" rx="61.5" ry="8"/>
		<g>
			<path style="fill:#92E3A9;stroke:#263238;stroke-linecap:round;stroke-linejoin:round;stroke-miterlimit:10;" d="
				M320.892,223.085c0,0-3.99,3.99-5.7,9.69c-1.71,5.7-12.825,33.346-12.255,36.196c0.57,2.85,8.835,6.84,11.685,5.7
				c2.85-1.14,7.41-13.965,7.41-13.965L320.892,223.085z"/>
			<g>
				<path style="fill:#263238;stroke:#263238;stroke-linecap:round;stroke-linejoin:round;stroke-miterlimit:10;" d="
					M353.79,214.281c-0.017-0.016-0.035-0.033-0.052-0.049C353.754,214.248,353.773,214.264,353.79,214.281z"/>
				<path style="fill:#263238;stroke:#263238;stroke-linecap:round;stroke-linejoin:round;stroke-miterlimit:10;" d="
					M353.181,213.617c0.027,0.035,0.062,0.069,0.091,0.104C353.243,213.686,353.208,213.652,353.181,213.617z"/>
				<path style="fill:#263238;stroke:#263238;stroke-linecap:round;stroke-linejoin:round;stroke-miterlimit:10;" d="
					M376.37,294.115c-4.321-9.971-8.309-16.618-8.309-16.618s4.653-32.239,4.653-39.219c0-6.98-4.653-11.633-7.977-15.621
					c-2.439-2.927-6.842-5.138-9.672-7.29c0,0,0,0,0,0c-1.394,4.892-6.752,21.435-15.255,20.585
					c-9.971-0.997-3.988-18.28-3.988-18.28c-1.329,3.656-14.292,0.997-16.618,8.309c-2.327,7.312,1.329,36.892,1.662,45.534
					c0.332,8.642,0.665,29.913-0.997,40.548c-1.662,10.636-6.315,62.484-4.985,74.782c1.329,12.297,10.303,39.551,10.636,43.872
					c0.332,4.321-2.327,5.318-1.662,7.644c0.665,2.326,0.665,4.321,0.665,4.321s-2.327,1.662-6.315,4.986
					c-3.988,3.324-8.309,5.318-3.324,6.647c4.985,1.329,14.624-0.332,14.624-0.332s-7.644,4.653-3.988,5.982
					c3.656,1.329,26.257,0.332,30.245,0c3.988-0.332,5.318-1.994,4.986-6.98c-0.332-4.985-0.997-6.98-0.997-6.98
					s2.327-6.315,2.327-9.306s0-5.318,0-8.641c0-3.324,0-17.615,2.659-24.927c2.659-7.312,2.327-13.959,2.327-19.277
					c0-5.318-1.329-13.627-1.329-13.627s11.965-26.589,15.289-41.213C384.347,314.389,380.691,304.086,376.37,294.115z
					 M344.464,414.43c0,0-1.994-14.624-4.321-21.271c-2.327-6.647-3.324-10.636-3.324-12.297c0-1.662,6.98-31.242,6.98-31.242
					s-1.662,32.239-0.332,43.207C344.796,403.795,344.464,414.43,344.464,414.43z"/>
			</g>
			<g>
				<path style="fill:#92E3A9;stroke:#263238;stroke-linecap:round;stroke-linejoin:round;stroke-miterlimit:10;" d="
					M357.093,311.73c12.354-1.544,19.179-4.882,22.95-8.014c-1.029-3.315-2.318-6.475-3.673-9.601
					c-4.321-9.971-8.309-16.618-8.309-16.618s4.653-32.239,4.653-39.219c0-6.98-4.653-11.633-7.977-15.621
					c-2.44-2.927-6.842-5.138-9.673-7.29c-1.394,4.892-6.752,21.435-15.255,20.585c-9.971-0.997-3.988-18.28-3.988-18.28
					c-1.329,3.656-14.292,0.997-16.618,8.309c-2.327,7.312,1.329,36.892,1.662,45.534c0.298,7.747,0.595,25.64-0.544,36.925
					C327.484,310.889,340.296,313.83,357.093,311.73z"/>
				<g>
					<path style="fill:none;stroke:#263238;stroke-linecap:round;stroke-linejoin:round;stroke-miterlimit:10;" d="M328.527,260.199
						c0,0,10.009,11.492,15.2,14.458"/>
					<path style="fill:none;stroke:#263238;stroke-linecap:round;stroke-linejoin:round;stroke-miterlimit:10;" d="M341.384,277.088
						c0.76,0.434,1.542,0.861,2.342,1.276"/>
					<path style="fill:none;stroke:#263238;stroke-linecap:round;stroke-linejoin:round;stroke-miterlimit:10;" d="M326.673,266.13
						c0,0,4.699,4.699,11.875,9.249"/>
				</g>
			</g>
			<g>
				<path style="fill:#FFFFFF;stroke:#263238;stroke-linecap:round;stroke-linejoin:round;stroke-miterlimit:10;" d="
					M323.452,208.386c0,0-2.975,10.33-2.04,13.863c0.936,3.533,2.842,9.038,2.842,9.038s-22.706,33.088-22.964,37.07
					c-0.258,3.982,4.127,6.836,8.109,7.094c3.982,0.258,6.386-1.586,7.818-6.063c1.432-4.477,13.257-37.127,13.257-37.127
					s4.039-9.449,4.718-11.119c0.679-1.67,1.158-9.064,1.158-9.064s-1.844-2.404-1.972-0.413c-0.129,1.991-1.506,5.615-1.506,5.615
					l-2.376-3.01c0,0-0.027-4,0.047-5.138c0.074-1.138-0.559-4.606-2.036-3.845S324.792,205.331,323.452,208.386z"/>
				<path style="fill:none;stroke:#263238;stroke-linecap:round;stroke-linejoin:round;stroke-miterlimit:10;" d="M324.963,213.613
					l-0.966,5.155c0,0,5.155,5.799,4.51,10.31"/>
			</g>
			<g>
				<g>
					<path style="fill:#263238;stroke:#263238;stroke-linecap:round;stroke-linejoin:round;stroke-miterlimit:10;" d="
						M327.181,170.808c0,0-3.68-3.438-4.366-7.211c-0.686-3.773,16.12-7.203,23.666-5.145c7.546,2.058,26.014,10.156,26.753,19.207
						c1.372,16.806-9.01,25.665-10.289,27.781c-3.55,5.873-12.145,4.204-14.062,2.744c-1.91-1.455-8.232-13.376-11.318-17.835
						C334.476,185.891,327.181,170.808,327.181,170.808z"/>
					<g>
						<path style="fill:none;stroke:#757575;stroke-linecap:round;stroke-linejoin:round;stroke-miterlimit:10;" d="
							M337.563,175.944c0,0,13.376,7.203,23.666,7.889"/>
						<path style="fill:none;stroke:#757575;stroke-linecap:round;stroke-linejoin:round;stroke-miterlimit:10;" d="
							M340.993,182.804c0,0,7.889,11.318,24.352,10.632"/>
					</g>
				</g>
				<path style="fill:#FFFFFF;stroke:#263238;stroke-linecap:round;stroke-linejoin:round;stroke-miterlimit:10;" d="
					M352.773,213.018c-1.49-2.681,0.221-6.155,0.592-6.848c-0.001,0.003-0.002,0.004-0.003,0.006l-4.577-2.797
					c0,0,1.662,0,4.653-0.665c2.991-0.665,5.048-6.192,2.327-8.641c-3.467-3.121-6.647,0.332-6.647,0.332s-5.318,0-8.309-6.647
					c-2.991-6.647-2.991-10.968-6.98-12.962c-3.988-1.994-6.647-3.988-6.647-3.988s-3.691,8.507-3.358,14.49
					c0.332,5.983-5.283,8.776-5.616,10.438s3.988,2.991,3.988,2.991s-0.665,11.633,0.665,12.962c1.329,1.329,12.962,0,12.962,0
					s1.329,2.326,0,5.982c0,0-5.982,17.283,3.988,18.28c8.503,0.85,13.861-15.693,15.255-20.585c0.04,0.031,0.088,0.062,0.129,0.092
					C354.111,214.647,353.232,213.845,352.773,213.018z"/>
				<ellipse style="fill:#263238;" cx="327.845" cy="189.42" rx="0.997" ry="1.994"/>
				<path style="fill:none;stroke:#263238;stroke-linecap:round;stroke-linejoin:round;stroke-miterlimit:10;" d="M324.946,201.389
					c0,0,3.375,1.125,6.749-1.875"/>
				<path style="fill:none;stroke:#263238;stroke-linecap:round;stroke-linejoin:round;stroke-miterlimit:10;" d="M326.071,183.954
					c0,0,3-2.25,4.874,1.312"/>
			</g>
			<path style="fill:#FFFFFF;stroke:#263238;stroke-linecap:round;stroke-linejoin:round;stroke-miterlimit:10;" d="M326.522,456.14
				c5.246-1.032,13.296-3.578,14.618-7.809c1.662-5.318,1.994-5.65,1.994-5.65c-5.983,2.659-12.298,0.665-12.298,0.665
				s-0.665-4.653-3.656-4.985c-2.506-0.278-2.678,2.932-2.669,3.985c0.01,0.213,0.01,0.335,0.01,0.335s-2.327,1.662-6.315,4.986
				c-3.988,3.324-8.309,5.318-3.324,6.647c4.985,1.329,14.624-0.332,14.624-0.332S327.908,454.956,326.522,456.14z"/>
			<path style="fill:#FFFFFF;stroke:#263238;stroke-linecap:round;stroke-linejoin:round;stroke-miterlimit:10;" d="
				M360.749,452.984c-0.165-2.473-0.411-4.209-0.618-5.331c-6.051,1.371-13.341,0.678-13.341,0.678s-1.994-10.303-5.318-3.988
				c-3.324,6.315-11.965,9.639-11.965,9.639s-7.644,4.653-3.988,5.982c3.656,1.329,26.257,0.332,30.245,0
				C359.752,459.632,361.082,457.97,360.749,452.984z"/>
			<path style="fill:#92E3A9;stroke:#263238;stroke-linecap:round;stroke-linejoin:round;stroke-miterlimit:10;" d="
				M358.513,235.056c0,0-9.69,34.486-9.975,37.621c-0.285,3.135,3.42,12.54,9.405,11.115c5.985-1.425,9.69-7.695,10.83-13.965
				c1.14-6.27,7.98-27.646,7.98-33.061s-14.535-15.105-14.535-15.105"/>
			<g>
				<path style="fill:#FFFFFF;stroke:#263238;stroke-linecap:round;stroke-linejoin:round;stroke-miterlimit:10;" d="
					M346.402,235.706c0,0,4.877-11.156,5.094-12.852c0.217-1.696-2.204-7.466-3.93-9.698c-1.725-2.232-11.62-3.5-10.67-1.941
					c0.95,1.558,4.763,3.196,4.763,3.196s-3.086,15.121-2.527,17.491c0.558,2.37,1.994,6.864,1.994,6.864s6,38.409,6.275,40.743
					c0.276,2.334,4.828,4.928,8.329,4.515c3.501-0.414,5.632-3.589,6.037-8.996c0.405-5.407-11.231-26.724-12-29.696
					C348.998,242.36,346.402,235.706,346.402,235.706z"/>
				<path style="fill:none;stroke:#263238;stroke-linecap:round;stroke-linejoin:round;stroke-miterlimit:10;" d="M347.566,213.156
					c0,0,0.577,0.559,0.293,1.837c-0.284,1.279-1.279,5.398-1.279,5.398"/>
				
					<line style="fill:none;stroke:#263238;stroke-linecap:round;stroke-linejoin:round;stroke-miterlimit:10;" x1="349.848" y1="218.403" x2="348.57" y2="222.665"/>
			</g>
		</g>
	</g>
</g>
<g id="Device">
	<g>
		<polygon style="fill:#FFFFFF;stroke:#263238;stroke-linecap:round;stroke-linejoin:round;stroke-miterlimit:10;" points="
			205.371,241.937 210.66,248.853 255.82,253.329 253.401,258.958 199.675,263.093 190.724,244.378 		"/>
		<polygon style="fill:#92E3A9;stroke:#263238;stroke-linecap:round;stroke-linejoin:round;stroke-miterlimit:10;" points="
			198.861,215.085 210.253,243.157 197.234,247.633 186.249,224.849 		"/>
		<path style="fill:#92E3A9;stroke:#263238;stroke-linecap:round;stroke-linejoin:round;stroke-miterlimit:10;" d="M203.325,203.516
			c0,0-3.179,17.884-4.968,24.839c-1.788,6.955-11.724,20.07-16.692,24.641c-4.968,4.57-15.102,17.288-15.102,17.288v-73.922
			l14.307-10.532L203.325,203.516z"/>
		<g>
			<path style="fill:#FFFFFF;stroke:#263238;stroke-linecap:round;stroke-linejoin:round;stroke-miterlimit:10;" d="M185.639,159.6
				c0,0,1.788,7.154,2.583,8.346c0.795,1.192,0.795,7.75-1.987,11.327c-2.782,3.577-6.16,7.154-6.16,7.154l17.089,12.32
				c0,0,4.968-8.147,7.154-10.333c2.186-2.186,5.365-3.974,5.365-3.974s-5.962-5.167-6.359-11.724s-0.199-14.705-0.199-14.705
				L185.639,159.6z"/>
			<polygon style="fill:#263238;stroke:#263238;stroke-linecap:round;stroke-linejoin:round;stroke-miterlimit:10;" points="
				199.554,177.918 203.015,189.688 209.684,184.44 			"/>
		</g>
		<g>
			<path style="fill:#FFFFFF;stroke:#263238;stroke-linecap:round;stroke-linejoin:round;stroke-miterlimit:10;" d="
				M225.461,158.612c0,0-0.476,4.168-0.476,5.36c0,1.192,4.173,3.974,4.173,5.763c0,1.788-4.57,4.372-4.57,4.372
				s-2.782,10.731-4.57,12.718c-1.788,1.987-14.705-1.391-17.884-4.372c-3.179-2.981-5.564-14.109-5.763-17.487
				c-0.199-3.378,0-7.551,0-7.551l27.82-0.994L225.461,158.612z"/>
			<path style="fill:#263238;stroke:#263238;stroke-linecap:round;stroke-linejoin:round;stroke-miterlimit:10;" d="
				M204.723,158.304c0,0-0.871,1.741,0,3.192c0.87,1.451,2.902,2.321,2.902,2.321l-3.482,0.29l-0.29,1.161
				c0,0-3.772-1.161-5.223-5.513c-1.451-4.353-2.611,1.741-2.611,1.741l0.29,5.513c0,0-2.321,2.902-5.223,4.062
				c-2.902,1.161-2.902,1.161-2.902,1.161s-2.031-13.348-1.741-16.249c0.29-2.902,9.576-4.062,11.607-3.482
				C200.08,153.081,204.723,155.112,204.723,158.304z"/>
			<path style="fill:#263238;" d="M220.414,163.773c0,1.207-0.4,2.186-0.894,2.186c-0.494,0-0.894-0.979-0.894-2.186
				c0-1.207,0.4-2.186,0.894-2.186C220.014,161.588,220.414,162.566,220.414,163.773z"/>
			<path style="fill:none;stroke:#263238;stroke-linecap:round;stroke-linejoin:round;stroke-miterlimit:10;" d="M215.446,173.113
				c0,0,1.788,2.981,6.16,2.583"/>
		</g>
		<path style="fill:#92E3A9;stroke:#263238;stroke-linecap:round;stroke-linejoin:round;stroke-miterlimit:10;" d="M185.226,160.848
			c0,0,20.756-0.639,28.739-1.277c7.983-0.639,11.496-0.958,11.496-0.958s-1.916-15.647-2.555-19.798
			c-0.639-4.151-17.243-9.899-24.588-8.622c-7.344,1.277-15.008,8.302-15.647,13.411
			C182.033,148.713,185.226,160.848,185.226,160.848z"/>
		<path style="fill:#FFFFFF;stroke:#263238;stroke-linecap:round;stroke-linejoin:round;stroke-miterlimit:10;" d="M199.915,164.041
			c0,0-3.193-7.664-6.067-6.067s-2.555,7.664-0.639,9.58c1.916,1.916,6.067,0.639,6.067,0.639"/>
		<path style="fill:#FFFFFF;stroke:#263238;stroke-linecap:round;stroke-linejoin:round;stroke-miterlimit:10;" d="M212.368,159.889
			c0,0,9.58-5.109,13.411-5.109c3.832,0,18.84-0.319,16.924,3.512c-1.916,3.832-14.37,2.235-19.798,2.235
			C217.478,160.528,212.368,159.889,212.368,159.889z"/>
		<polygon style="fill:#FFFFFF;stroke:#263238;stroke-linecap:round;stroke-linejoin:round;stroke-miterlimit:10;" points="
			181.267,179.869 207.299,197.158 205.51,207.093 176.697,186.228 		"/>
		<g>
			<g>
				<path style="fill:#92E3A9;stroke:#263238;stroke-linecap:round;stroke-linejoin:round;stroke-miterlimit:10;" d="
					M265.125,216.433c0,0,2.782-9.141,7.949-9.936c5.167-0.795,13.91,0.398,14.109,2.981c0.199,2.583-3.776,6.558-3.776,6.558
					L265.125,216.433z"/>
				<path style="fill:#263238;stroke:#263238;stroke-linecap:round;stroke-linejoin:round;stroke-miterlimit:10;" d="
					M284.949,207.519c-4.314,0.295-8.026,8.128-8.274,8.663l6.732-0.146c0,0,3.974-3.974,3.776-6.557
					C287.121,208.689,286.258,208.032,284.949,207.519z"/>
			</g>
			<path style="fill:#92E3A9;stroke:#263238;stroke-linecap:round;stroke-linejoin:round;stroke-miterlimit:10;" d="
				M259.958,205.305c0,0-10.532-2.384-12.916,1.59c-2.385,3.974,7.75,9.339,7.75,9.339h14.506L259.958,205.305z"/>
			<path style="fill:#263238;stroke:#263238;stroke-linecap:round;stroke-linejoin:round;stroke-miterlimit:10;" d="
				M270.887,216.433c0,0-5.564-12.917-10.929-11.128c-5.365,1.789,4.968,10.929,6.16,10.929L270.887,216.433z"/>
			
				<rect x="239.888" y="216.234" style="fill:#FFFFFF;stroke:#263238;stroke-linecap:round;stroke-linejoin:round;stroke-miterlimit:10;" width="49.877" height="42.724"/>
			
				<rect x="274.663" y="216.234" style="fill:#FFFFFF;stroke:#263238;stroke-linecap:round;stroke-linejoin:round;stroke-miterlimit:10;" width="15.102" height="42.724"/>
			
				<rect x="253.401" y="216.234" style="fill:#92E3A9;stroke:#263238;stroke-linecap:round;stroke-linejoin:round;stroke-miterlimit:10;" width="9.936" height="42.724"/>
			<polygon style="fill:#92E3A9;stroke:#263238;stroke-linecap:round;stroke-linejoin:round;stroke-miterlimit:10;" points="
				278.637,216.632 278.637,237.497 283.009,231.138 286.785,236.304 286.785,216.433 			"/>
		</g>
		<path style="fill:#FFFFFF;stroke:#263238;stroke-linecap:round;stroke-linejoin:round;stroke-miterlimit:10;" d="M202.132,244.849
			l5.365,8.743l39.147,2.186c0,0,8.346-6.756,8.942-6.756s5.365-0.199,8.545,0s5.167-1.59,5.365-0.596
			c0.199,0.993-0.795,2.981-2.385,3.179c-1.59,0.199-6.756,1.987-6.756,1.987l2.782,2.583c0,0,10.532,1.987,9.936,2.981
			c-0.596,0.994-7.75,6.16-7.75,6.16s-6.955,0.397-9.538-0.795c-2.583-1.192-6.558-2.384-6.558-2.384s-50.473,7.948-54.05,8.743
			c-3.577,0.795-6.359-2.782-7.154-4.372c-0.795-1.59-4.57-15.301-4.57-15.301L202.132,244.849z"/>
		<path style="fill:#92E3A9;stroke:#263238;stroke-linecap:round;stroke-linejoin:round;stroke-miterlimit:10;" d="M188.421,196.959
			c0,0-5.763-4.57-10.532-1.192c-4.769,3.378-8.743,11.128-7.551,16.891c1.192,5.763,9.936,41.929,9.936,41.929l25.038-8.346
			l-11.923-42.326"/>
	</g>
	<g>
		<g>
			<g>
				<g>
					
						<path id="XMLID_4_" style="fill:#263238;stroke:#263238;stroke-linecap:round;stroke-linejoin:round;stroke-miterlimit:10;" d="
						M168.101,429.13L63.337,414.837c-2.2-0.3-3.977-3.244-3.977-6.577V94.939c0-3.333,1.777-6.277,3.977-6.577l104.764-14.293
						c2.611-0.356,4.736,2.313,4.736,5.963v343.135C172.838,426.817,170.713,429.486,168.101,429.13z"/>
					
						<path id="XMLID_3_" style="fill:#FFFFFF;stroke:#263238;stroke-linecap:round;stroke-linejoin:round;stroke-miterlimit:10;" d="
						M163.858,428.551l-104.11-14.204c-2.186-0.298-3.953-3.233-3.953-6.556V95.408c0-3.323,1.767-6.258,3.953-6.556l104.11-14.203
						c2.594-0.354,4.705,2.307,4.705,5.945v342.012C168.563,426.244,166.452,428.905,163.858,428.551z"/>
					<path style="fill:#263238;" d="M117.455,98.79l-14.027,1.714c-0.785,0.096-1.421-0.76-1.421-1.913l0,0
						c0-1.152,0.636-2.166,1.421-2.265l14.027-1.761c0.804-0.101,1.457,0.764,1.457,1.932l0,0
						C118.912,97.665,118.259,98.691,117.455,98.79z"/>
					<path style="fill:#263238;" d="M112.775,402.811c0-1.807-1.005-3.392-2.242-3.539c-1.234-0.147-2.233,1.195-2.233,2.995
						c0,1.801,0.999,3.385,2.233,3.538C111.77,405.959,112.775,404.618,112.775,402.811z"/>
					<polygon style="fill:#FFFFFF;stroke:#263238;stroke-linecap:round;stroke-linejoin:round;stroke-miterlimit:10;" points="
						172.008,132.815 169.566,133.038 169.566,111.291 172.008,111.028 					"/>
					<polygon style="fill:#FFFFFF;stroke:#263238;stroke-linecap:round;stroke-linejoin:round;stroke-miterlimit:10;" points="
						172.008,170.943 169.566,171.094 169.566,149.347 172.008,149.156 					"/>
					<polygon style="fill:#FFFFFF;stroke:#263238;stroke-linecap:round;stroke-linejoin:round;stroke-miterlimit:10;" points="
						172.008,195.453 169.566,195.558 169.566,173.812 172.008,173.666 					"/>
				</g>
				<path id="XMLID_2_" style="fill:#FFFFFF;stroke:#263238;stroke-linecap:round;stroke-linejoin:round;stroke-miterlimit:10;" d="
					M154.273,399.806l-86.3-9.934c-3.118-0.359-5.633-4.461-5.633-9.163V114.272c0-4.703,2.515-8.822,5.633-9.202l16.326-1.992
					l2.521,2.812c0.883,0.985,1.997,1.451,3.149,1.315l41.164-4.86c1.285-0.152,2.528-0.97,3.496-2.305l2.471-3.404l17.172-2.095
					c3.601-0.439,6.535,3.329,6.535,8.419v288.38C160.808,396.431,157.874,400.22,154.273,399.806z"/>
				<path style="fill:#92E3A9;stroke:#263238;stroke-linecap:round;stroke-linejoin:round;stroke-miterlimit:10;" d="M62.34,332.102
					v48.606c0,4.703,2.515,8.805,5.633,9.163l86.3,9.934c3.601,0.415,6.535-3.374,6.535-8.464V337.85L62.34,332.102z"/>
				<path style="fill:#92E3A9;stroke:#263238;stroke-linecap:round;stroke-linejoin:round;stroke-miterlimit:10;" d="
					M154.273,94.542l-17.172,2.095l-2.471,3.404c-0.969,1.335-2.212,2.153-3.496,2.305l-41.164,4.86
					c-1.152,0.136-2.265-0.33-3.149-1.315l-2.521-2.812l-16.326,1.992c-3.118,0.38-5.633,4.5-5.633,9.202v31.082l98.467-6.353
					v-36.04C160.808,97.871,157.874,94.103,154.273,94.542z"/>
				<g>
					<path style="fill:#263238;stroke:#263238;stroke-linecap:round;stroke-linejoin:round;stroke-miterlimit:10;" d="
						M160.808,118.493v-15.532c0-5.09-2.934-8.858-6.535-8.419l-17.172,2.095l-2.471,3.404c-0.969,1.335-2.212,2.153-3.496,2.305
						l-41.164,4.86c-1.152,0.136-2.265-0.33-3.149-1.315l-2.521-2.812l-16.326,1.992c-3.118,0.38-5.633,4.5-5.633,9.202v12.627
						L160.808,118.493z"/>
					<polygon style="fill:#FFFFFF;" points="113.031,135.799 68.87,139.601 68.87,131.997 113.031,128.195 					"/>
					<g>
						<polyline style="fill:none;stroke:#FFFFFF;stroke-linecap:round;stroke-linejoin:round;stroke-miterlimit:10;" points="
							145.033,125.312 132.626,126.148 135.47,132.625 144.752,131.922 147.249,123.516 151.361,123.203 						"/>
						<path style="fill:#FFFFFF;stroke:#FFFFFF;stroke-linecap:round;stroke-linejoin:round;stroke-miterlimit:10;" d="
							M137.86,135.016c0,0.544-0.441,0.984-0.984,0.984s-0.984-0.441-0.984-0.984s0.441-0.984,0.984-0.984
							S137.86,134.472,137.86,135.016z"/>
						<path style="fill:#FFFFFF;stroke:#FFFFFF;stroke-linecap:round;stroke-linejoin:round;stroke-miterlimit:10;" d="
							M144.752,134.454c0,0.544-0.441,0.984-0.985,0.984c-0.544,0-0.984-0.441-0.984-0.984c0-0.544,0.441-0.984,0.984-0.984
							C144.311,133.469,144.752,133.91,144.752,134.454z"/>
					</g>
				</g>
			</g>
			<g>
				<g>
					<g>
						<path style="fill:#92E3A9;stroke:#263238;stroke-linecap:round;stroke-linejoin:round;stroke-miterlimit:10;" d="
							M107.104,194.932c0,0,3.248-10.283,9.322-11.392c6.13-1.12,16.635-0.161,16.876,2.76c0.241,2.922-4.558,7.569-4.558,7.569
							L107.104,194.932z"/>
						<path style="fill:#263238;stroke:#263238;stroke-linecap:round;stroke-linejoin:round;stroke-miterlimit:10;" d="
							M130.601,184.175c-5.184,0.519-9.614,9.48-9.909,10.089l8.051-0.396c0,0,4.799-4.646,4.558-7.569
							C133.227,185.408,132.182,184.699,130.601,184.175z"/>
					</g>
					<path style="fill:#92E3A9;stroke:#263238;stroke-linecap:round;stroke-linejoin:round;stroke-miterlimit:10;" d="
						M101.115,182.783c0,0-12.041-2.161-14.736,2.297c-2.684,4.439,8.802,9.971,8.802,9.971l16.801-0.479L101.115,182.783z"/>
					<path style="fill:#263238;stroke:#263238;stroke-linecap:round;stroke-linejoin:round;stroke-miterlimit:10;" d="
						M113.849,194.74c0,0-6.514-14.182-12.734-11.958c-6.162,2.203,5.757,11.934,7.147,11.895L113.849,194.74z"/>
					<polygon style="fill:#FFFFFF;stroke:#263238;stroke-linecap:round;stroke-linejoin:round;stroke-miterlimit:10;" points="
						136.438,242.446 78.359,242.003 78.359,195.531 136.438,193.874 					"/>
					<polygon style="fill:#FFFFFF;stroke:#263238;stroke-linecap:round;stroke-linejoin:round;stroke-miterlimit:10;" points="
						136.438,242.446 118.305,242.308 118.305,194.391 136.438,193.874 					"/>
					<polygon style="fill:#92E3A9;stroke:#263238;stroke-linecap:round;stroke-linejoin:round;stroke-miterlimit:10;" points="
						93.591,242.12 105.024,242.207 105.024,194.77 93.591,195.096 					"/>
					<polygon style="fill:#92E3A9;stroke:#263238;stroke-linecap:round;stroke-linejoin:round;stroke-miterlimit:10;" points="
						123.029,194.704 123.029,218.188 128.265,210.948 132.82,216.733 132.82,194.202 					"/>
				</g>
				<path style="fill:#263238;stroke:#263238;stroke-linecap:round;stroke-linejoin:round;stroke-miterlimit:10;" d="M75.142,295.3
					l68.451,3.422c4.438,0.222,8.059-2.944,8.059-7.073v-17.531c0-4.129-3.621-7.565-8.059-7.674l-68.451-1.682
					c-3.946-0.097-7.126,2.953-7.126,6.812v16.383C68.016,291.815,71.196,295.103,75.142,295.3z"/>
				<g>
					<path style="fill:#FFFFFF;" d="M87.764,276.712v1.064l-1.352-0.047v-1.135c0-1.117-0.456-1.806-1.495-1.84
						c-1.019-0.033-1.491,0.624-1.491,1.738v6.543c0,1.114,0.472,1.806,1.491,1.848c1.039,0.043,1.495-0.613,1.495-1.73v-2.482
						l-1.313-0.049v-1.24l2.664,0.097v3.656c0,1.881-0.914,3.085-2.883,3.002c-1.945-0.082-2.852-1.357-2.852-3.229v-6.394
						c0-1.873,0.907-3.08,2.852-3.019C86.851,273.559,87.764,274.83,87.764,276.712z"/>
					<path style="fill:#FFFFFF;" d="M90.553,273.8v12.453l-1.431-0.06v-12.438L90.553,273.8z"/>
					<path style="fill:#FFFFFF;" d="M96.444,279.814v1.269l-2.98-0.112v5.403l-1.439-0.06v-12.468l5.142,0.163v1.27l-3.704-0.121
						v4.547L96.444,279.814z"/>
					<path style="fill:#FFFFFF;" d="M100.205,286.657v-11.278l-2.403-0.079v-1.271l6.261,0.198v1.277l-2.419-0.079v11.292
						L100.205,286.657z"/>
					<path style="fill:#FFFFFF;" d="M113.74,277.581v0.344l-1.411-0.049v-0.416c0-1.141-0.457-1.826-1.521-1.861
						c-1.063-0.035-1.517,0.619-1.517,1.739c0,2.835,4.468,3.27,4.468,6.841c0,1.921-0.973,3.132-3.007,3.046
						c-2.029-0.085-2.975-1.37-2.975-3.282v-0.722l1.381,0.054v0.795c0,1.137,0.493,1.826,1.555,1.869
						c1.064,0.044,1.559-0.606,1.559-1.746c0-2.825-4.439-3.261-4.439-6.815c0-1.949,0.946-3.128,2.937-3.065
						C112.787,274.379,113.74,275.659,113.74,277.581z"/>
					<path style="fill:#FFFFFF;" d="M119.84,280.375v1.276l-3.287-0.122v4.524l4.039,0.165v1.294l-5.532-0.232v-12.703l5.532,0.175
						v1.294l-4.039-0.132v4.342L119.84,280.375z"/>
					<path style="fill:#FFFFFF;" d="M123.321,287.626l-1.355-0.057v-12.774l1.917,0.061l3.15,9.372v-9.272l1.346,0.043v12.84
						l-1.58-0.066l-3.478-10.486V287.626z"/>
					<path style="fill:#FFFFFF;" d="M131.928,287.987v-11.57l-2.529-0.083v-1.303l6.589,0.209v1.31l-2.545-0.083v11.584
						L131.928,287.987z"/>
				</g>
			</g>
		</g>
		
			<ellipse style="fill:#263238;stroke:#263238;stroke-width:2;stroke-linecap:round;stroke-miterlimit:10;" cx="117.295" cy="453" rx="61.5" ry="8"/>
	</g>
</g>
</svg>
